<?xml version="1.0" encoding="iso-8859-1"?>
<!-- Generator: Adobe Illustrator 19.0.0, SVG Export Plug-In . SVG Version: 6.00 Build 0)  -->
<svg version="1.1" id="Layer_1" xmlns="http://www.w3.org/2000/svg" xmlns:xlink="http://www.w3.org/1999/xlink" x="0px" y="0px"
	 viewBox="0 0 512 512" style="enable-background:new 0 0 512 512;" xml:space="preserve">
<rect x="237.467" y="67.313" style="fill:#3D7A94;" width="37.068" height="69.502"/>
<g>
	<rect x="207.349" y="125.231" style="fill:#6BADB4;" width="97.303" height="90.48"/>
	<rect x="222.338" y="11.584" style="fill:#6BADB4;" width="67.313" height="67.313"/>
</g>
<path style="fill:#9AE1D3;" d="M304.652,192.549h-97.303c-30.926,17.136-51.85,50.102-51.85,87.963c0,55.506,0,208.32,0,208.32
	c0,6.371,5.213,11.584,11.584,11.584h177.835c6.371,0,11.584-5.213,11.584-11.584c0,0,0-152.815,0-208.32
	C356.502,242.651,335.578,209.685,304.652,192.549z"/>
<rect x="201.835" y="303.679" style="fill:#FFFFFF;" width="108.331" height="150.403"/>
<g>
	<path style="fill:#000030;" d="M316.236,185.98v-60.746c0-6.397-5.187-11.584-11.584-11.584h-18.534V90.483h3.54
		c6.397,0,11.584-5.186,11.584-11.584V11.584C301.242,5.186,296.055,0,289.658,0h-67.314c-6.397,0-11.584,5.186-11.584,11.584
		v22.074H155.5c-6.398,0-11.584,5.186-11.584,11.584c0,6.397,5.186,11.584,11.584,11.584h55.26V78.9
		c0,6.398,5.187,11.584,11.584,11.584h3.539v23.167h-18.534c-6.398,0-11.584,5.187-11.584,11.584v60.746
		c-32.146,20.509-51.85,56.114-51.85,94.532v208.319c0,12.775,10.393,23.167,23.167,23.167h177.834
		c12.775,0,23.167-10.393,23.167-23.167v-208.32C368.086,242.094,348.382,206.489,316.236,185.98z M233.927,23.167h44.147v44.148
		h-44.147V23.167z M249.05,90.483h13.9v23.167h-13.9V90.483z M293.068,136.818v44.147h-74.136v-44.147
		C218.933,136.818,293.068,136.818,293.068,136.818z M344.918,488.833H167.083v-208.32c0-31.356,16.538-60.357,43.359-76.381h91.117
		c26.82,16.024,43.359,45.024,43.359,76.381L344.918,488.833L344.918,488.833z"/>
	<path style="fill:#000030;" d="M310.167,292.096h-96.748v-11.584c0-12.67,5.589-24.602,15.335-32.736
		c4.911-4.099,5.571-11.405,1.472-16.317c-4.102-4.91-11.404-5.568-16.317-1.471c-15.035,12.549-23.657,30.963-23.657,50.522v63.523
		c0,6.398,5.186,11.584,11.584,11.584c6.397,0,11.584-5.186,11.584-11.584v-28.772h85.165v127.235h-85.165v-58.949
		c0-6.398-5.187-11.584-11.584-11.584c-6.398,0-11.584,5.186-11.584,11.584v70.533c0,6.397,5.186,11.584,11.584,11.584h108.332
		c6.397,0,11.584-5.187,11.584-11.584V303.68C321.751,297.283,316.564,292.096,310.167,292.096z"/>
</g>
<g>
</g>
<g>
</g>
<g>
</g>
<g>
</g>
<g>
</g>
<g>
</g>
<g>
</g>
<g>
</g>
<g>
</g>
<g>
</g>
<g>
</g>
<g>
</g>
<g>
</g>
<g>
</g>
<g>
</g>
</svg>
